<mxfile host="Electron" agent="Mozilla/5.0 (Windows NT 10.0; Win64; x64) AppleWebKit/537.36 (KHTML, like Gecko) draw.io/26.2.2 Chrome/134.0.6998.178 Electron/35.1.2 Safari/537.36" version="26.2.2">
  <diagram name="Page-1" id="Wjv5Oz3AqmIwob7s-AKi">
    <mxGraphModel dx="1428" dy="841" grid="1" gridSize="10" guides="1" tooltips="1" connect="1" arrows="1" fold="1" page="1" pageScale="1" pageWidth="1169" pageHeight="827" math="0" shadow="0">
      <root>
        <mxCell id="0" />
        <mxCell id="1" parent="0" />
        <mxCell id="Xvql2AdoNt05fyFsp_AF-1" value="&lt;div&gt;&lt;font face=&quot;Verdana&quot; style=&quot;font-size: 16px;&quot;&gt;&lt;b style=&quot;&quot;&gt;Sys College&lt;/b&gt;&lt;/font&gt;&lt;/div&gt;&lt;div&gt;&lt;b style=&quot;font-size: 16px; background-color: transparent;&quot;&gt;&lt;font style=&quot;color: light-dark(rgb(255, 255, 255), rgb(255, 255, 255));&quot; face=&quot;Verdana&quot;&gt;Learning&amp;nbsp;&lt;/font&gt;&lt;/b&gt;&lt;/div&gt;&lt;div&gt;&lt;font face=&quot;Verdana&quot; style=&quot;font-size: 16px;&quot;&gt;&lt;b&gt;Management&lt;/b&gt;&lt;/font&gt;&lt;/div&gt;&lt;div&gt;&lt;font face=&quot;Verdana&quot; style=&quot;font-size: 16px;&quot;&gt;&lt;b&gt;System&lt;/b&gt;&lt;/font&gt;&lt;/div&gt;&lt;div&gt;&lt;font face=&quot;Verdana&quot; style=&quot;font-size: 16px;&quot;&gt;&lt;b&gt;(LMS)&lt;br&gt;&lt;/b&gt;&lt;/font&gt;&lt;div&gt;&lt;font face=&quot;Verdana&quot; style=&quot;font-size: 16px;&quot;&gt;&lt;b style=&quot;&quot;&gt;v 1.0&lt;/b&gt;&lt;/font&gt;&lt;/div&gt;&lt;/div&gt;" style="ellipse;whiteSpace=wrap;html=1;aspect=fixed;fillColor=#1ba1e2;fontColor=#ffffff;strokeColor=#006EAF;" parent="1" vertex="1">
          <mxGeometry x="505" y="290" width="250" height="250" as="geometry" />
        </mxCell>
        <mxCell id="PJatKT9wjX2m28LQ-qIB-1" value="&lt;font style=&quot;font-size: 14px;&quot; face=&quot;Verdana&quot;&gt;&lt;b&gt;Students&lt;/b&gt;&lt;/font&gt;" style="rounded=1;whiteSpace=wrap;html=1;fillColor=#ffcd28;strokeColor=#d79b00;gradientColor=#ffa500;" parent="1" vertex="1">
          <mxGeometry x="163" y="347" width="160" height="80" as="geometry" />
        </mxCell>
        <mxCell id="PJatKT9wjX2m28LQ-qIB-2" value="&lt;b&gt;&lt;font style=&quot;font-size: 14px;&quot; face=&quot;Verdana&quot;&gt;Faculty (Lecturers)&lt;/font&gt;&lt;/b&gt;" style="rounded=1;whiteSpace=wrap;html=1;fillColor=#ffcd28;gradientColor=#ffa500;strokeColor=#d79b00;" parent="1" vertex="1">
          <mxGeometry x="158" y="270" width="162" height="60" as="geometry" />
        </mxCell>
        <mxCell id="PJatKT9wjX2m28LQ-qIB-3" value="&lt;b&gt;&lt;font style=&quot;font-size: 14px;&quot; face=&quot;Verdana&quot;&gt;Admin Staff&lt;/font&gt;&lt;/b&gt;" style="rounded=1;whiteSpace=wrap;html=1;fillColor=#ffcd28;gradientColor=#ffa500;strokeColor=#d79b00;" parent="1" vertex="1">
          <mxGeometry x="360" y="160" width="120" height="80" as="geometry" />
        </mxCell>
        <mxCell id="PJatKT9wjX2m28LQ-qIB-4" value="&lt;b&gt;&lt;font style=&quot;font-size: 14px;&quot; face=&quot;Verdana&quot;&gt;Department Heads&lt;/font&gt;&lt;/b&gt;" style="rounded=1;whiteSpace=wrap;html=1;fillColor=#ffcd28;gradientColor=#ffa500;strokeColor=#d79b00;" parent="1" vertex="1">
          <mxGeometry x="880" y="160" width="120" height="80" as="geometry" />
        </mxCell>
        <mxCell id="PJatKT9wjX2m28LQ-qIB-5" value="&lt;b&gt;&lt;font style=&quot;font-size: 14px;&quot; face=&quot;Verdana&quot;&gt;IT Department&lt;/font&gt;&lt;/b&gt;" style="rounded=1;whiteSpace=wrap;html=1;fillColor=#ffcd28;gradientColor=#ffa500;strokeColor=#d79b00;" parent="1" vertex="1">
          <mxGeometry x="928" y="260" width="120" height="60" as="geometry" />
        </mxCell>
        <mxCell id="PJatKT9wjX2m28LQ-qIB-6" value="&lt;b&gt;&lt;font style=&quot;font-size: 14px;&quot; face=&quot;Verdana&quot;&gt;Executives (Vps,Dean)&lt;/font&gt;&lt;/b&gt;" style="rounded=1;whiteSpace=wrap;html=1;fillColor=#ffcd28;gradientColor=#ffa500;strokeColor=#d79b00;" parent="1" vertex="1">
          <mxGeometry x="928" y="387" width="120" height="53" as="geometry" />
        </mxCell>
        <mxCell id="PJatKT9wjX2m28LQ-qIB-12" value="" style="endArrow=classic;html=1;rounded=0;strokeWidth=1;exitX=0.994;exitY=0.088;exitDx=0;exitDy=0;exitPerimeter=0;entryX=0.064;entryY=0.248;entryDx=0;entryDy=0;entryPerimeter=0;" parent="1" source="PJatKT9wjX2m28LQ-qIB-1" target="Xvql2AdoNt05fyFsp_AF-1" edge="1">
          <mxGeometry width="50" height="50" relative="1" as="geometry">
            <mxPoint x="350" y="358" as="sourcePoint" />
            <mxPoint x="500" y="340" as="targetPoint" />
          </mxGeometry>
        </mxCell>
        <mxCell id="PJatKT9wjX2m28LQ-qIB-13" value="View Context" style="edgeLabel;html=1;align=center;verticalAlign=middle;resizable=0;points=[];fontFamily=Verdana;fontSize=11;fontStyle=1" parent="PJatKT9wjX2m28LQ-qIB-12" vertex="1" connectable="0">
          <mxGeometry x="0.0659" y="-1" relative="1" as="geometry">
            <mxPoint x="-8" y="-2" as="offset" />
          </mxGeometry>
        </mxCell>
        <mxCell id="PJatKT9wjX2m28LQ-qIB-14" value="" style="endArrow=classic;html=1;rounded=0;entryX=0.048;entryY=0.328;entryDx=0;entryDy=0;entryPerimeter=0;strokeWidth=1;exitX=1.019;exitY=0.35;exitDx=0;exitDy=0;exitPerimeter=0;" parent="1" source="PJatKT9wjX2m28LQ-qIB-1" target="Xvql2AdoNt05fyFsp_AF-1" edge="1">
          <mxGeometry width="50" height="50" relative="1" as="geometry">
            <mxPoint x="320" y="375" as="sourcePoint" />
            <mxPoint x="509.75" y="374.75" as="targetPoint" />
          </mxGeometry>
        </mxCell>
        <mxCell id="PJatKT9wjX2m28LQ-qIB-15" value="Submit Assignment" style="edgeLabel;html=1;align=center;verticalAlign=middle;resizable=0;points=[];fontFamily=Verdana;fontSize=11;fontStyle=1" parent="PJatKT9wjX2m28LQ-qIB-14" vertex="1" connectable="0">
          <mxGeometry x="0.0659" y="-1" relative="1" as="geometry">
            <mxPoint x="-12" y="-4" as="offset" />
          </mxGeometry>
        </mxCell>
        <mxCell id="PJatKT9wjX2m28LQ-qIB-16" value="" style="endArrow=classic;html=1;rounded=0;exitX=0.012;exitY=0.392;exitDx=0;exitDy=0;strokeWidth=1;exitPerimeter=0;" parent="1" source="Xvql2AdoNt05fyFsp_AF-1" target="PJatKT9wjX2m28LQ-qIB-1" edge="1">
          <mxGeometry width="50" height="50" relative="1" as="geometry">
            <mxPoint x="505" y="394" as="sourcePoint" />
            <mxPoint x="300" y="394" as="targetPoint" />
          </mxGeometry>
        </mxCell>
        <mxCell id="PJatKT9wjX2m28LQ-qIB-17" value="Receive Grade/Feedback" style="edgeLabel;html=1;align=center;verticalAlign=middle;resizable=0;points=[];fontFamily=Verdana;fontSize=11;fontStyle=1" parent="PJatKT9wjX2m28LQ-qIB-16" vertex="1" connectable="0">
          <mxGeometry x="0.0659" y="-1" relative="1" as="geometry">
            <mxPoint x="10" as="offset" />
          </mxGeometry>
        </mxCell>
        <mxCell id="PJatKT9wjX2m28LQ-qIB-18" value="" style="endArrow=classic;html=1;rounded=0;strokeWidth=1;entryX=1;entryY=0.75;entryDx=0;entryDy=0;exitX=0.008;exitY=0.468;exitDx=0;exitDy=0;exitPerimeter=0;" parent="1" source="Xvql2AdoNt05fyFsp_AF-1" target="PJatKT9wjX2m28LQ-qIB-1" edge="1">
          <mxGeometry width="50" height="50" relative="1" as="geometry">
            <mxPoint x="505" y="412" as="sourcePoint" />
            <mxPoint x="300" y="412" as="targetPoint" />
          </mxGeometry>
        </mxCell>
        <mxCell id="PJatKT9wjX2m28LQ-qIB-19" value="Get Notifications" style="edgeLabel;html=1;align=center;verticalAlign=middle;resizable=0;points=[];fontFamily=Verdana;fontSize=11;fontStyle=1" parent="PJatKT9wjX2m28LQ-qIB-18" vertex="1" connectable="0">
          <mxGeometry x="0.0659" y="-1" relative="1" as="geometry">
            <mxPoint x="4" y="1" as="offset" />
          </mxGeometry>
        </mxCell>
        <mxCell id="PJatKT9wjX2m28LQ-qIB-20" value="" style="endArrow=classic;html=1;rounded=0;strokeWidth=1;exitX=1;exitY=0.867;exitDx=0;exitDy=0;entryX=0;entryY=0;entryDx=0;entryDy=0;exitPerimeter=0;" parent="1" source="PJatKT9wjX2m28LQ-qIB-2" target="Xvql2AdoNt05fyFsp_AF-1" edge="1">
          <mxGeometry width="50" height="50" relative="1" as="geometry">
            <mxPoint x="560" y="200" as="sourcePoint" />
            <mxPoint x="490" y="310" as="targetPoint" />
            <Array as="points" />
          </mxGeometry>
        </mxCell>
        <mxCell id="PJatKT9wjX2m28LQ-qIB-21" value="Upload&amp;nbsp;&lt;span style=&quot;background-color: light-dark(#ffffff, var(--ge-dark-color, #121212)); color: light-dark(rgb(0, 0, 0), rgb(255, 255, 255));&quot;&gt;Content&lt;/span&gt;" style="edgeLabel;html=1;align=center;verticalAlign=middle;resizable=0;points=[];fontFamily=Verdana;fontSize=11;fontStyle=1" parent="PJatKT9wjX2m28LQ-qIB-20" vertex="1" connectable="0">
          <mxGeometry x="0.0659" y="-1" relative="1" as="geometry">
            <mxPoint x="8" as="offset" />
          </mxGeometry>
        </mxCell>
        <mxCell id="PJatKT9wjX2m28LQ-qIB-22" value="" style="endArrow=classic;html=1;rounded=0;strokeWidth=1;startArrow=block;startFill=1;entryX=0.212;entryY=0.096;entryDx=0;entryDy=0;entryPerimeter=0;exitX=0.981;exitY=0.633;exitDx=0;exitDy=0;exitPerimeter=0;" parent="1" source="PJatKT9wjX2m28LQ-qIB-2" target="Xvql2AdoNt05fyFsp_AF-1" edge="1">
          <mxGeometry width="50" height="50" relative="1" as="geometry">
            <mxPoint x="330" y="272" as="sourcePoint" />
            <mxPoint x="560" y="290" as="targetPoint" />
            <Array as="points">
              <mxPoint x="540" y="308" />
            </Array>
          </mxGeometry>
        </mxCell>
        <mxCell id="PJatKT9wjX2m28LQ-qIB-23" value="Manage&amp;nbsp;&lt;span style=&quot;background-color: light-dark(#ffffff, var(--ge-dark-color, #121212)); color: light-dark(rgb(0, 0, 0), rgb(255, 255, 255));&quot;&gt;Grade&lt;/span&gt;" style="edgeLabel;html=1;align=center;verticalAlign=middle;resizable=0;points=[];fontFamily=Verdana;fontSize=11;fontStyle=1" parent="PJatKT9wjX2m28LQ-qIB-22" vertex="1" connectable="0">
          <mxGeometry x="0.0659" y="-1" relative="1" as="geometry">
            <mxPoint x="-11" y="-1" as="offset" />
          </mxGeometry>
        </mxCell>
        <mxCell id="PJatKT9wjX2m28LQ-qIB-24" value="" style="endArrow=classic;html=1;rounded=0;strokeWidth=1;startArrow=block;startFill=1;exitX=1;exitY=0.25;exitDx=0;exitDy=0;entryX=0.288;entryY=0.04;entryDx=0;entryDy=0;entryPerimeter=0;" parent="1" source="PJatKT9wjX2m28LQ-qIB-2" target="Xvql2AdoNt05fyFsp_AF-1" edge="1">
          <mxGeometry width="50" height="50" relative="1" as="geometry">
            <mxPoint x="410" y="250" as="sourcePoint" />
            <mxPoint x="680" y="270" as="targetPoint" />
            <Array as="points">
              <mxPoint x="450" y="285" />
              <mxPoint x="570" y="285" />
            </Array>
          </mxGeometry>
        </mxCell>
        <mxCell id="PJatKT9wjX2m28LQ-qIB-25" value="Track&amp;nbsp;&lt;span style=&quot;background-color: light-dark(#ffffff, var(--ge-dark-color, #121212)); color: light-dark(rgb(0, 0, 0), rgb(255, 255, 255));&quot;&gt;Attendance&lt;/span&gt;" style="edgeLabel;html=1;align=center;verticalAlign=middle;resizable=0;points=[];fontFamily=Verdana;fontSize=11;fontStyle=1" parent="PJatKT9wjX2m28LQ-qIB-24" vertex="1" connectable="0">
          <mxGeometry x="0.0659" y="-1" relative="1" as="geometry">
            <mxPoint x="-22" as="offset" />
          </mxGeometry>
        </mxCell>
        <mxCell id="PJatKT9wjX2m28LQ-qIB-26" value="" style="endArrow=classic;startArrow=classic;html=1;rounded=0;strokeWidth=1;entryX=1;entryY=0;entryDx=0;entryDy=0;exitX=0.38;exitY=0.02;exitDx=0;exitDy=0;exitPerimeter=0;" parent="1" source="Xvql2AdoNt05fyFsp_AF-1" target="PJatKT9wjX2m28LQ-qIB-2" edge="1">
          <mxGeometry width="50" height="50" relative="1" as="geometry">
            <mxPoint x="800" y="300" as="sourcePoint" />
            <mxPoint x="540" y="210" as="targetPoint" />
            <Array as="points">
              <mxPoint x="600" y="270" />
            </Array>
          </mxGeometry>
        </mxCell>
        <mxCell id="PJatKT9wjX2m28LQ-qIB-27" value="&lt;font face=&quot;Verdana&quot;&gt;&lt;b&gt;Student&amp;nbsp;&lt;/b&gt;&lt;/font&gt;&lt;b style=&quot;font-family: Verdana; background-color: light-dark(#ffffff, var(--ge-dark-color, #121212)); color: light-dark(rgb(0, 0, 0), rgb(255, 255, 255));&quot;&gt;Communication&lt;/b&gt;" style="edgeLabel;html=1;align=center;verticalAlign=middle;resizable=0;points=[];fontSize=11;" parent="PJatKT9wjX2m28LQ-qIB-26" vertex="1" connectable="0">
          <mxGeometry x="0.0965" relative="1" as="geometry">
            <mxPoint x="-12" y="-2" as="offset" />
          </mxGeometry>
        </mxCell>
        <mxCell id="ij3giNlZp6oouef-Bmyc-1" value="" style="endArrow=classic;html=1;rounded=0;exitX=1;exitY=1;exitDx=0;exitDy=0;entryX=0.5;entryY=0;entryDx=0;entryDy=0;" parent="1" source="PJatKT9wjX2m28LQ-qIB-3" target="Xvql2AdoNt05fyFsp_AF-1" edge="1">
          <mxGeometry width="50" height="50" relative="1" as="geometry">
            <mxPoint x="550" y="210" as="sourcePoint" />
            <mxPoint x="600" y="160" as="targetPoint" />
            <Array as="points">
              <mxPoint x="630" y="240" />
            </Array>
          </mxGeometry>
        </mxCell>
        <mxCell id="ij3giNlZp6oouef-Bmyc-2" value="&lt;font face=&quot;Verdana&quot;&gt;&lt;b&gt;Enroll Student&lt;/b&gt;&lt;/font&gt;" style="edgeLabel;html=1;align=center;verticalAlign=middle;resizable=0;points=[];" parent="ij3giNlZp6oouef-Bmyc-1" vertex="1" connectable="0">
          <mxGeometry x="-0.25" y="-2" relative="1" as="geometry">
            <mxPoint y="-3" as="offset" />
          </mxGeometry>
        </mxCell>
        <mxCell id="ij3giNlZp6oouef-Bmyc-3" value="" style="endArrow=classic;html=1;rounded=0;exitX=1;exitY=0.75;exitDx=0;exitDy=0;entryX=0.552;entryY=0;entryDx=0;entryDy=0;entryPerimeter=0;exitPerimeter=0;" parent="1" source="PJatKT9wjX2m28LQ-qIB-3" target="Xvql2AdoNt05fyFsp_AF-1" edge="1">
          <mxGeometry width="50" height="50" relative="1" as="geometry">
            <mxPoint x="490" y="222" as="sourcePoint" />
            <mxPoint x="640" y="272" as="targetPoint" />
            <Array as="points">
              <mxPoint x="643" y="222" />
            </Array>
          </mxGeometry>
        </mxCell>
        <mxCell id="ij3giNlZp6oouef-Bmyc-4" value="&lt;font face=&quot;Verdana&quot;&gt;&lt;b&gt;Manage Schedule&lt;/b&gt;&lt;/font&gt;" style="edgeLabel;html=1;align=center;verticalAlign=middle;resizable=0;points=[];" parent="ij3giNlZp6oouef-Bmyc-3" vertex="1" connectable="0">
          <mxGeometry x="-0.25" y="-2" relative="1" as="geometry">
            <mxPoint y="-3" as="offset" />
          </mxGeometry>
        </mxCell>
        <mxCell id="ij3giNlZp6oouef-Bmyc-5" value="" style="endArrow=classic;html=1;rounded=0;exitX=1;exitY=0.5;exitDx=0;exitDy=0;" parent="1" source="PJatKT9wjX2m28LQ-qIB-3" edge="1">
          <mxGeometry width="50" height="50" relative="1" as="geometry">
            <mxPoint x="500" y="220" as="sourcePoint" />
            <mxPoint x="660" y="290" as="targetPoint" />
            <Array as="points">
              <mxPoint x="660" y="200" />
            </Array>
          </mxGeometry>
        </mxCell>
        <mxCell id="ij3giNlZp6oouef-Bmyc-6" value="&lt;font face=&quot;Verdana&quot;&gt;&lt;b&gt;Generate Reports&lt;/b&gt;&lt;/font&gt;" style="edgeLabel;html=1;align=center;verticalAlign=middle;resizable=0;points=[];" parent="ij3giNlZp6oouef-Bmyc-5" vertex="1" connectable="0">
          <mxGeometry x="-0.25" y="-2" relative="1" as="geometry">
            <mxPoint y="-3" as="offset" />
          </mxGeometry>
        </mxCell>
        <mxCell id="ij3giNlZp6oouef-Bmyc-7" value="" style="endArrow=classic;html=1;rounded=0;exitX=1;exitY=0.25;exitDx=0;exitDy=0;" parent="1" source="PJatKT9wjX2m28LQ-qIB-3" edge="1">
          <mxGeometry width="50" height="50" relative="1" as="geometry">
            <mxPoint x="495" y="180" as="sourcePoint" />
            <mxPoint x="680" y="300" as="targetPoint" />
            <Array as="points">
              <mxPoint x="680" y="180" />
            </Array>
          </mxGeometry>
        </mxCell>
        <mxCell id="ij3giNlZp6oouef-Bmyc-8" value="&lt;font face=&quot;Verdana&quot;&gt;&lt;b&gt;Monitor Compliance&lt;/b&gt;&lt;/font&gt;" style="edgeLabel;html=1;align=center;verticalAlign=middle;resizable=0;points=[];" parent="ij3giNlZp6oouef-Bmyc-7" vertex="1" connectable="0">
          <mxGeometry x="-0.25" y="-2" relative="1" as="geometry">
            <mxPoint y="-3" as="offset" />
          </mxGeometry>
        </mxCell>
        <mxCell id="ij3giNlZp6oouef-Bmyc-9" value="" style="endArrow=classic;html=1;rounded=0;exitX=0.752;exitY=0.056;exitDx=0;exitDy=0;exitPerimeter=0;entryX=0;entryY=0.25;entryDx=0;entryDy=0;" parent="1" source="Xvql2AdoNt05fyFsp_AF-1" target="PJatKT9wjX2m28LQ-qIB-4" edge="1">
          <mxGeometry width="50" height="50" relative="1" as="geometry">
            <mxPoint x="760" y="330" as="sourcePoint" />
            <mxPoint x="810" y="280" as="targetPoint" />
            <Array as="points">
              <mxPoint x="693" y="180" />
            </Array>
          </mxGeometry>
        </mxCell>
        <mxCell id="ij3giNlZp6oouef-Bmyc-10" value="&lt;font face=&quot;Verdana&quot;&gt;&lt;b&gt;Access Dashboard&lt;/b&gt;&lt;/font&gt;" style="edgeLabel;html=1;align=center;verticalAlign=middle;resizable=0;points=[];" parent="ij3giNlZp6oouef-Bmyc-9" vertex="1" connectable="0">
          <mxGeometry x="0.2347" y="1" relative="1" as="geometry">
            <mxPoint as="offset" />
          </mxGeometry>
        </mxCell>
        <mxCell id="ij3giNlZp6oouef-Bmyc-11" value="" style="endArrow=classic;html=1;rounded=0;" parent="1" edge="1">
          <mxGeometry width="50" height="50" relative="1" as="geometry">
            <mxPoint x="703" y="310" as="sourcePoint" />
            <mxPoint x="870" y="200" as="targetPoint" />
            <Array as="points">
              <mxPoint x="703" y="200" />
            </Array>
          </mxGeometry>
        </mxCell>
        <mxCell id="ij3giNlZp6oouef-Bmyc-12" value="&lt;font face=&quot;Verdana&quot;&gt;&lt;b&gt;Analyze Performance&lt;/b&gt;&lt;/font&gt;" style="edgeLabel;html=1;align=center;verticalAlign=middle;resizable=0;points=[];" parent="ij3giNlZp6oouef-Bmyc-11" vertex="1" connectable="0">
          <mxGeometry x="0.2347" y="1" relative="1" as="geometry">
            <mxPoint x="17" as="offset" />
          </mxGeometry>
        </mxCell>
        <mxCell id="ij3giNlZp6oouef-Bmyc-14" value="" style="endArrow=classic;html=1;rounded=0;exitX=0;exitY=0.25;exitDx=0;exitDy=0;entryX=1;entryY=0;entryDx=0;entryDy=0;startArrow=block;startFill=1;" parent="1" source="PJatKT9wjX2m28LQ-qIB-5" target="Xvql2AdoNt05fyFsp_AF-1" edge="1">
          <mxGeometry width="50" height="50" relative="1" as="geometry">
            <mxPoint x="770" y="290" as="sourcePoint" />
            <mxPoint x="820" y="240" as="targetPoint" />
            <Array as="points">
              <mxPoint x="720" y="275" />
            </Array>
          </mxGeometry>
        </mxCell>
        <mxCell id="ij3giNlZp6oouef-Bmyc-15" value="&lt;b&gt;&lt;font face=&quot;Verdana&quot;&gt;Manage Integration&lt;/font&gt;&lt;/b&gt;" style="edgeLabel;html=1;align=center;verticalAlign=middle;resizable=0;points=[];" parent="ij3giNlZp6oouef-Bmyc-14" vertex="1" connectable="0">
          <mxGeometry x="0.0206" y="1" relative="1" as="geometry">
            <mxPoint x="16" as="offset" />
          </mxGeometry>
        </mxCell>
        <mxCell id="ij3giNlZp6oouef-Bmyc-16" value="" style="endArrow=classic;html=1;rounded=0;exitX=0;exitY=0.5;exitDx=0;exitDy=0;entryX=0.932;entryY=0.24;entryDx=0;entryDy=0;entryPerimeter=0;startArrow=block;startFill=1;" parent="1" source="PJatKT9wjX2m28LQ-qIB-5" target="Xvql2AdoNt05fyFsp_AF-1" edge="1">
          <mxGeometry width="50" height="50" relative="1" as="geometry">
            <mxPoint x="890" y="285" as="sourcePoint" />
            <mxPoint x="728" y="337" as="targetPoint" />
            <Array as="points">
              <mxPoint x="740" y="290" />
            </Array>
          </mxGeometry>
        </mxCell>
        <mxCell id="ij3giNlZp6oouef-Bmyc-17" value="&lt;b&gt;&lt;font face=&quot;Verdana&quot;&gt;Config Security&lt;/font&gt;&lt;/b&gt;" style="edgeLabel;html=1;align=center;verticalAlign=middle;resizable=0;points=[];" parent="ij3giNlZp6oouef-Bmyc-16" vertex="1" connectable="0">
          <mxGeometry x="0.0206" y="1" relative="1" as="geometry">
            <mxPoint x="16" as="offset" />
          </mxGeometry>
        </mxCell>
        <mxCell id="ij3giNlZp6oouef-Bmyc-18" value="" style="endArrow=classic;html=1;rounded=0;exitX=0.25;exitY=1;exitDx=0;exitDy=0;entryX=0.956;entryY=0.292;entryDx=0;entryDy=0;entryPerimeter=0;startArrow=blockThin;startFill=1;" parent="1" source="PJatKT9wjX2m28LQ-qIB-5" target="Xvql2AdoNt05fyFsp_AF-1" edge="1">
          <mxGeometry width="50" height="50" relative="1" as="geometry">
            <mxPoint x="840" y="410" as="sourcePoint" />
            <mxPoint x="890" y="360" as="targetPoint" />
            <Array as="points">
              <mxPoint x="960" y="360" />
            </Array>
          </mxGeometry>
        </mxCell>
        <mxCell id="ij3giNlZp6oouef-Bmyc-19" value="&lt;b&gt;&lt;font face=&quot;Verdana&quot;&gt;Monitor Uptime&lt;/font&gt;&lt;/b&gt;" style="edgeLabel;html=1;align=center;verticalAlign=middle;resizable=0;points=[];" parent="ij3giNlZp6oouef-Bmyc-18" vertex="1" connectable="0">
          <mxGeometry x="0.0682" y="2" relative="1" as="geometry">
            <mxPoint y="-3" as="offset" />
          </mxGeometry>
        </mxCell>
        <mxCell id="ij3giNlZp6oouef-Bmyc-20" value="" style="endArrow=classic;startArrow=classic;html=1;rounded=0;entryX=0;entryY=0.25;entryDx=0;entryDy=0;exitX=1.004;exitY=0.448;exitDx=0;exitDy=0;exitPerimeter=0;" parent="1" source="Xvql2AdoNt05fyFsp_AF-1" target="PJatKT9wjX2m28LQ-qIB-6" edge="1">
          <mxGeometry width="50" height="50" relative="1" as="geometry">
            <mxPoint x="770" y="480" as="sourcePoint" />
            <mxPoint x="820" y="430" as="targetPoint" />
          </mxGeometry>
        </mxCell>
        <mxCell id="ij3giNlZp6oouef-Bmyc-21" value="&lt;b&gt;&lt;font face=&quot;Verdana&quot;&gt;KPIs&lt;/font&gt;&lt;/b&gt;" style="edgeLabel;html=1;align=center;verticalAlign=middle;resizable=0;points=[];" parent="ij3giNlZp6oouef-Bmyc-20" vertex="1" connectable="0">
          <mxGeometry x="-0.0808" y="-1" relative="1" as="geometry">
            <mxPoint y="-3" as="offset" />
          </mxGeometry>
        </mxCell>
        <mxCell id="ij3giNlZp6oouef-Bmyc-22" value="" style="endArrow=classic;startArrow=classic;html=1;rounded=0;exitX=1;exitY=0.5;exitDx=0;exitDy=0;" parent="1" edge="1">
          <mxGeometry width="50" height="50" relative="1" as="geometry">
            <mxPoint x="755" y="417" as="sourcePoint" />
            <mxPoint x="930" y="419" as="targetPoint" />
          </mxGeometry>
        </mxCell>
        <mxCell id="ij3giNlZp6oouef-Bmyc-23" value="&lt;b&gt;&lt;font face=&quot;Verdana&quot;&gt;Dashboard&lt;/font&gt;&lt;/b&gt;" style="edgeLabel;html=1;align=center;verticalAlign=middle;resizable=0;points=[];" parent="ij3giNlZp6oouef-Bmyc-22" vertex="1" connectable="0">
          <mxGeometry x="-0.0808" y="-1" relative="1" as="geometry">
            <mxPoint x="4" as="offset" />
          </mxGeometry>
        </mxCell>
        <mxCell id="Vb__ZJzH-cQLzNxRptrh-4" value="" style="endArrow=classic;startArrow=classic;html=1;rounded=0;exitX=0.984;exitY=0.568;exitDx=0;exitDy=0;exitPerimeter=0;entryX=0.017;entryY=0.887;entryDx=0;entryDy=0;entryPerimeter=0;" edge="1" parent="1" target="PJatKT9wjX2m28LQ-qIB-6">
          <mxGeometry width="50" height="50" relative="1" as="geometry">
            <mxPoint x="751" y="434" as="sourcePoint" />
            <mxPoint x="880" y="432" as="targetPoint" />
          </mxGeometry>
        </mxCell>
        <mxCell id="Vb__ZJzH-cQLzNxRptrh-5" value="&lt;b&gt;&lt;font face=&quot;Verdana&quot;&gt;Reports&lt;/font&gt;&lt;/b&gt;" style="edgeLabel;html=1;align=center;verticalAlign=middle;resizable=0;points=[];" vertex="1" connectable="0" parent="Vb__ZJzH-cQLzNxRptrh-4">
          <mxGeometry x="-0.0808" y="-1" relative="1" as="geometry">
            <mxPoint x="4" as="offset" />
          </mxGeometry>
        </mxCell>
        <mxCell id="Vb__ZJzH-cQLzNxRptrh-6" value="" style="rounded=0;whiteSpace=wrap;html=1;fillColor=#eeeeee;strokeColor=#36393d;" vertex="1" parent="1">
          <mxGeometry x="120" y="580" width="960" height="130" as="geometry" />
        </mxCell>
        <mxCell id="Vb__ZJzH-cQLzNxRptrh-7" value="Integration with External Systems" style="text;html=1;align=center;verticalAlign=middle;whiteSpace=wrap;rounded=0;fontFamily=Verdana;fontSize=14;fontStyle=1;fillColor=#a20025;fontColor=#ffffff;strokeColor=#6F0000;" vertex="1" parent="1">
          <mxGeometry x="120" y="680" width="960" height="30" as="geometry" />
        </mxCell>
        <mxCell id="PJatKT9wjX2m28LQ-qIB-7" value="&lt;b&gt;&lt;font style=&quot;font-size: 14px;&quot; face=&quot;Verdana&quot;&gt;Student Information System&amp;nbsp;&lt;/font&gt;&lt;/b&gt;&lt;div&gt;&lt;b&gt;&lt;font style=&quot;font-size: 14px;&quot; face=&quot;Verdana&quot;&gt;(SIS)&lt;/font&gt;&lt;/b&gt;&lt;/div&gt;" style="rounded=1;whiteSpace=wrap;html=1;fillColor=#dae8fc;strokeColor=#6c8ebf;gradientColor=#7ea6e0;" parent="1" vertex="1">
          <mxGeometry x="130" y="600" width="170" height="60" as="geometry" />
        </mxCell>
        <mxCell id="PJatKT9wjX2m28LQ-qIB-8" value="&lt;b&gt;&lt;font style=&quot;font-size: 14px;&quot; face=&quot;Verdana&quot;&gt;Human Resource Management System&lt;br&gt;(HRMS)&lt;/font&gt;&lt;/b&gt;" style="rounded=1;whiteSpace=wrap;html=1;fillColor=#dae8fc;strokeColor=#6c8ebf;gradientColor=#7ea6e0;" parent="1" vertex="1">
          <mxGeometry x="501" y="600" width="180" height="60" as="geometry" />
        </mxCell>
        <mxCell id="PJatKT9wjX2m28LQ-qIB-9" value="&lt;font face=&quot;Verdana&quot;&gt;&lt;span style=&quot;font-size: 14px;&quot;&gt;&lt;b&gt;Active Directory&lt;/b&gt;&lt;/span&gt;&lt;/font&gt;&lt;div&gt;&lt;b style=&quot;font-size: 14px; font-family: Verdana; background-color: transparent; color: light-dark(rgb(0, 0, 0), rgb(255, 255, 255));&quot;&gt;(AD)&lt;/b&gt;&lt;/div&gt;" style="rounded=1;whiteSpace=wrap;html=1;fillColor=#dae8fc;strokeColor=#6c8ebf;gradientColor=#7ea6e0;" parent="1" vertex="1">
          <mxGeometry x="694" y="600" width="180" height="60" as="geometry" />
        </mxCell>
        <mxCell id="PJatKT9wjX2m28LQ-qIB-10" value="&lt;font face=&quot;Verdana&quot;&gt;&lt;span style=&quot;font-size: 14px;&quot;&gt;&lt;b&gt;Email/System Gateway&lt;/b&gt;&lt;/span&gt;&lt;/font&gt;" style="rounded=1;whiteSpace=wrap;html=1;fillColor=#dae8fc;strokeColor=#6c8ebf;gradientColor=#7ea6e0;" parent="1" vertex="1">
          <mxGeometry x="890" y="600" width="180" height="60" as="geometry" />
        </mxCell>
        <mxCell id="PJatKT9wjX2m28LQ-qIB-11" value="&lt;font face=&quot;Verdana&quot;&gt;&lt;span style=&quot;font-size: 14px;&quot;&gt;&lt;b&gt;Turnitin&lt;br&gt;(Plagiarism Tool)&lt;/b&gt;&lt;/span&gt;&lt;/font&gt;" style="rounded=1;whiteSpace=wrap;html=1;fillColor=#dae8fc;strokeColor=#6c8ebf;gradientColor=#7ea6e0;" parent="1" vertex="1">
          <mxGeometry x="312" y="600" width="180" height="60" as="geometry" />
        </mxCell>
        <mxCell id="Vb__ZJzH-cQLzNxRptrh-8" value="" style="endArrow=classic;startArrow=classic;html=1;rounded=0;exitX=0.25;exitY=0;exitDx=0;exitDy=0;entryX=0.004;entryY=0.592;entryDx=0;entryDy=0;entryPerimeter=0;" edge="1" parent="1" source="PJatKT9wjX2m28LQ-qIB-7" target="Xvql2AdoNt05fyFsp_AF-1">
          <mxGeometry width="50" height="50" relative="1" as="geometry">
            <mxPoint x="220" y="560" as="sourcePoint" />
            <mxPoint x="270" y="510" as="targetPoint" />
            <Array as="points">
              <mxPoint x="173" y="440" />
            </Array>
          </mxGeometry>
        </mxCell>
        <mxCell id="Vb__ZJzH-cQLzNxRptrh-9" value="&lt;font style=&quot;font-size: 13px;&quot; face=&quot;Verdana&quot;&gt;&lt;b&gt;Sync Student Enrollment&lt;/b&gt;&lt;/font&gt;" style="edgeLabel;html=1;align=center;verticalAlign=middle;resizable=0;points=[];" vertex="1" connectable="0" parent="Vb__ZJzH-cQLzNxRptrh-8">
          <mxGeometry x="0.1399" y="-2" relative="1" as="geometry">
            <mxPoint y="-2" as="offset" />
          </mxGeometry>
        </mxCell>
        <mxCell id="Vb__ZJzH-cQLzNxRptrh-10" value="" style="endArrow=classic;startArrow=classic;html=1;rounded=0;entryX=0.02;entryY=0.68;entryDx=0;entryDy=0;entryPerimeter=0;" edge="1" parent="1" target="Xvql2AdoNt05fyFsp_AF-1">
          <mxGeometry width="50" height="50" relative="1" as="geometry">
            <mxPoint x="210" y="599" as="sourcePoint" />
            <mxPoint x="517" y="448" as="targetPoint" />
            <Array as="points">
              <mxPoint x="210" y="460" />
            </Array>
          </mxGeometry>
        </mxCell>
        <mxCell id="Vb__ZJzH-cQLzNxRptrh-11" value="&lt;font style=&quot;font-size: 13px;&quot; face=&quot;Verdana&quot;&gt;&lt;b&gt;Sync Grades&lt;/b&gt;&lt;/font&gt;" style="edgeLabel;html=1;align=center;verticalAlign=middle;resizable=0;points=[];" vertex="1" connectable="0" parent="Vb__ZJzH-cQLzNxRptrh-10">
          <mxGeometry x="0.1399" y="-2" relative="1" as="geometry">
            <mxPoint y="-2" as="offset" />
          </mxGeometry>
        </mxCell>
        <mxCell id="Vb__ZJzH-cQLzNxRptrh-12" value="" style="endArrow=classic;startArrow=classic;html=1;rounded=0;entryX=0.02;entryY=0.68;entryDx=0;entryDy=0;entryPerimeter=0;exitX=0.75;exitY=0;exitDx=0;exitDy=0;" edge="1" parent="1" source="PJatKT9wjX2m28LQ-qIB-7">
          <mxGeometry width="50" height="50" relative="1" as="geometry">
            <mxPoint x="219" y="615" as="sourcePoint" />
            <mxPoint x="519" y="476" as="targetPoint" />
            <Array as="points">
              <mxPoint x="258" y="476" />
            </Array>
          </mxGeometry>
        </mxCell>
        <mxCell id="Vb__ZJzH-cQLzNxRptrh-13" value="&lt;font style=&quot;font-size: 13px;&quot; face=&quot;Verdana&quot;&gt;&lt;b&gt;Student Data&lt;/b&gt;&lt;/font&gt;" style="edgeLabel;html=1;align=center;verticalAlign=middle;resizable=0;points=[];" vertex="1" connectable="0" parent="Vb__ZJzH-cQLzNxRptrh-12">
          <mxGeometry x="0.1399" y="-2" relative="1" as="geometry">
            <mxPoint x="22" y="-2" as="offset" />
          </mxGeometry>
        </mxCell>
        <mxCell id="Vb__ZJzH-cQLzNxRptrh-14" value="" style="endArrow=classic;startArrow=classic;html=1;rounded=0;entryX=0.092;entryY=0.816;entryDx=0;entryDy=0;entryPerimeter=0;exitX=0.5;exitY=0;exitDx=0;exitDy=0;" edge="1" parent="1" source="PJatKT9wjX2m28LQ-qIB-11" target="Xvql2AdoNt05fyFsp_AF-1">
          <mxGeometry width="50" height="50" relative="1" as="geometry">
            <mxPoint x="390" y="560" as="sourcePoint" />
            <mxPoint x="440" y="510" as="targetPoint" />
            <Array as="points">
              <mxPoint x="400" y="494" />
            </Array>
          </mxGeometry>
        </mxCell>
        <mxCell id="Vb__ZJzH-cQLzNxRptrh-15" value="&lt;font face=&quot;Verdana&quot; style=&quot;font-size: 12px;&quot;&gt;&lt;b&gt;Verify Origionality&lt;/b&gt;&lt;/font&gt;" style="edgeLabel;html=1;align=center;verticalAlign=middle;resizable=0;points=[];" vertex="1" connectable="0" parent="Vb__ZJzH-cQLzNxRptrh-14">
          <mxGeometry x="-0.4612" y="2" relative="1" as="geometry">
            <mxPoint as="offset" />
          </mxGeometry>
        </mxCell>
        <mxCell id="Vb__ZJzH-cQLzNxRptrh-16" value="" style="endArrow=classic;startArrow=classic;html=1;rounded=0;exitX=0.25;exitY=0;exitDx=0;exitDy=0;entryX=0.172;entryY=0.892;entryDx=0;entryDy=0;entryPerimeter=0;" edge="1" parent="1" source="PJatKT9wjX2m28LQ-qIB-8" target="Xvql2AdoNt05fyFsp_AF-1">
          <mxGeometry width="50" height="50" relative="1" as="geometry">
            <mxPoint x="500" y="570" as="sourcePoint" />
            <mxPoint x="550" y="520" as="targetPoint" />
          </mxGeometry>
        </mxCell>
        <mxCell id="Vb__ZJzH-cQLzNxRptrh-17" value="&lt;b&gt;&lt;font style=&quot;font-size: 12px;&quot; face=&quot;Verdana&quot;&gt;Sync User Accounts&lt;/font&gt;&lt;/b&gt;" style="edgeLabel;html=1;align=center;verticalAlign=middle;resizable=0;points=[];" vertex="1" connectable="0" parent="Vb__ZJzH-cQLzNxRptrh-16">
          <mxGeometry x="0.1034" relative="1" as="geometry">
            <mxPoint as="offset" />
          </mxGeometry>
        </mxCell>
        <mxCell id="Vb__ZJzH-cQLzNxRptrh-18" value="" style="endArrow=classic;startArrow=classic;html=1;rounded=0;exitX=0.9;exitY=0.05;exitDx=0;exitDy=0;exitPerimeter=0;entryX=0.636;entryY=0.992;entryDx=0;entryDy=0;entryPerimeter=0;" edge="1" parent="1" source="PJatKT9wjX2m28LQ-qIB-8" target="Xvql2AdoNt05fyFsp_AF-1">
          <mxGeometry width="50" height="50" relative="1" as="geometry">
            <mxPoint x="760" y="560" as="sourcePoint" />
            <mxPoint x="683" y="520" as="targetPoint" />
          </mxGeometry>
        </mxCell>
        <mxCell id="Vb__ZJzH-cQLzNxRptrh-19" value="&lt;b&gt;&lt;font style=&quot;font-size: 12px;&quot; face=&quot;Verdana&quot;&gt;Access Control&lt;/font&gt;&lt;/b&gt;" style="edgeLabel;html=1;align=center;verticalAlign=middle;resizable=0;points=[];" vertex="1" connectable="0" parent="Vb__ZJzH-cQLzNxRptrh-18">
          <mxGeometry x="0.1034" relative="1" as="geometry">
            <mxPoint as="offset" />
          </mxGeometry>
        </mxCell>
        <mxCell id="Vb__ZJzH-cQLzNxRptrh-20" value="" style="endArrow=classic;startArrow=classic;html=1;rounded=0;exitX=0.5;exitY=0;exitDx=0;exitDy=0;entryX=1;entryY=1;entryDx=0;entryDy=0;" edge="1" parent="1" source="PJatKT9wjX2m28LQ-qIB-9" target="Xvql2AdoNt05fyFsp_AF-1">
          <mxGeometry width="50" height="50" relative="1" as="geometry">
            <mxPoint x="770" y="550" as="sourcePoint" />
            <mxPoint x="790" y="460" as="targetPoint" />
            <Array as="points">
              <mxPoint x="784" y="503" />
            </Array>
          </mxGeometry>
        </mxCell>
        <mxCell id="Vb__ZJzH-cQLzNxRptrh-21" value="&lt;font face=&quot;Verdana&quot; style=&quot;font-size: 12px;&quot;&gt;&lt;b&gt;User Authentication&lt;/b&gt;&lt;/font&gt;" style="edgeLabel;html=1;align=center;verticalAlign=middle;resizable=0;points=[];" vertex="1" connectable="0" parent="Vb__ZJzH-cQLzNxRptrh-20">
          <mxGeometry x="-0.2252" y="-1" relative="1" as="geometry">
            <mxPoint as="offset" />
          </mxGeometry>
        </mxCell>
        <mxCell id="Vb__ZJzH-cQLzNxRptrh-22" value="" style="endArrow=classic;html=1;rounded=0;exitX=0.98;exitY=0.648;exitDx=0;exitDy=0;exitPerimeter=0;entryX=0.5;entryY=0;entryDx=0;entryDy=0;" edge="1" parent="1" source="Xvql2AdoNt05fyFsp_AF-1" target="PJatKT9wjX2m28LQ-qIB-10">
          <mxGeometry width="50" height="50" relative="1" as="geometry">
            <mxPoint x="910" y="540" as="sourcePoint" />
            <mxPoint x="960" y="490" as="targetPoint" />
            <Array as="points">
              <mxPoint x="980" y="452" />
            </Array>
          </mxGeometry>
        </mxCell>
        <mxCell id="Vb__ZJzH-cQLzNxRptrh-23" value="&lt;font style=&quot;font-size: 12px;&quot; face=&quot;Verdana&quot;&gt;&lt;b&gt;Notification / Reminders&lt;/b&gt;&lt;/font&gt;" style="edgeLabel;html=1;align=center;verticalAlign=middle;resizable=0;points=[];" vertex="1" connectable="0" parent="Vb__ZJzH-cQLzNxRptrh-22">
          <mxGeometry x="0.5745" y="1" relative="1" as="geometry">
            <mxPoint as="offset" />
          </mxGeometry>
        </mxCell>
      </root>
    </mxGraphModel>
  </diagram>
</mxfile>
